# xmcd
#
# Track frame offsets:
# 150
# 13415
# 29122
# 43932
# 58095
# 71115
# 86540
# 96777
# 106712
# 124760
#
# Disc length: 1846 seconds
#
#
# Revision: 0
# Processed by: cddbd v1.5.1PL0 Copyright (c) Steve Scherf et al.
# Submitted via: FreeRIP 2.941 
#
DISCID=8d07340a
DTITLE=Luan and Alex - Luan and Alex
DYEAR=1900
DGENRE=Sertanejo
TTITLE0=Não Foge de Mim
TTITLE1=Levo Ela Pra Jantar
TTITLE2=Sufocado de Desejos
TTITLE3=Me Faça Sonhar Outra Vez
TTITLE4=Charme de Menina
TTITLE5=De Volta Pra Casa
TTITLE6=Sina de Peão
TTITLE7=Metade Amor,Metade Paixão
TTITLE8=Sem Terra
TTITLE9=Não Consigo te Esquecer
EXTD=
EXTT0=
EXTT1=
EXTT2=
EXTT3=
EXTT4=
EXTT5=
EXTT6=
EXTT7=
EXTT8=
EXTT9=
PLAYORDER=
